<svg xmlns="http://www.w3.org/2000/svg" viewBox="0 0 400 400"><path d="M162.08,131.86,159,128.75a15.65,15.65,0,0,0-22.13,0l-62,62a15.65,15.65,0,0,0,0,22.13l62,62a15.65,15.65,0,0,0,22.13,0l3.11-3.11a15.65,15.65,0,0,0,0-22.13l-36.76-36.76a15.65,15.65,0,0,1,0-22.13L162.08,154A15.65,15.65,0,0,0,162.08,131.86Z"/><path d="M237.92,268.14l3.11,3.11a15.65,15.65,0,0,0,22.13,0l62-62a15.65,15.65,0,0,0,0-22.13l-62-62a15.65,15.65,0,0,0-22.13,0l-3.11,3.11a15.65,15.65,0,0,0,0,22.13l36.76,36.76a15.65,15.65,0,0,1,0,22.13L237.92,246A15.65,15.65,0,0,0,237.92,268.14Z"/><rect x="148.64" y="182.02" width="102.74" height="35.96" rx="11.29" transform="translate(-82.84 200.01) rotate(-45)"/></svg>